<?xml version="1.0" standalone="no"?>
<!DOCTYPE svg PUBLIC "-//W3C//DTD SVG 20010904//EN"
 "http://www.w3.org/TR/2001/REC-SVG-20010904/DTD/svg10.dtd">
<svg version="1.0" xmlns="http://www.w3.org/2000/svg"
 width="136.000000pt" height="136.000000pt" viewBox="0 0 136.000000 136.000000"
 preserveAspectRatio="xMidYMid meet">
<metadata>
Created by potrace 1.14, written by Peter Selinger 2001-2017
</metadata>
<g transform="translate(0.000000,136.000000) scale(0.100000,-0.100000)"
fill="#000000" stroke="none">
<path d="M655 1110 c-4 -6 -13 -9 -20 -6 -16 6 -27 -18 -19 -39 5 -11 2 -13
-10 -9 -9 3 -13 10 -10 15 3 5 -3 6 -13 3 -14 -4 -12 -1 6 15 13 12 19 21 13
21 -6 0 -17 -7 -25 -15 -8 -8 -17 -11 -21 -8 -3 4 -6 1 -6 -5 0 -7 5 -12 12
-12 6 0 8 -3 4 -7 -4 -4 -15 -8 -24 -8 -12 0 -16 -7 -14 -24 2 -20 0 -22 -13
-11 -8 7 -12 17 -8 23 3 6 1 7 -5 3 -7 -4 -12 -2 -12 3 0 6 -5 11 -12 11 -9 0
-9 -3 0 -12 21 -21 13 -32 -10 -12 -13 10 -17 12 -10 4 20 -23 14 -35 -8 -15
-11 10 -20 15 -20 11 0 -4 10 -16 23 -27 12 -10 17 -18 10 -19 -6 0 -15 5 -18
10 -4 6 -18 2 -36 -10 -16 -12 -34 -18 -40 -14 -8 5 -8 1 0 -14 15 -28 14 -32
-4 -26 -10 4 -15 0 -15 -12 0 -16 2 -17 11 -4 8 12 10 11 7 -5 -2 -15 -11 -20
-30 -19 -15 1 -25 -3 -22 -7 3 -5 -2 -12 -11 -15 -12 -5 -13 -9 -4 -20 7 -8 9
-17 6 -21 -4 -3 -2 -14 3 -23 7 -13 5 -22 -6 -31 -13 -11 -15 -10 -14 2 4 26
0 39 -12 39 -6 0 -8 -3 -5 -7 4 -3 1 -13 -6 -21 -10 -13 -9 -14 2 -8 9 6 12 5
9 -5 -3 -8 -10 -13 -15 -12 -12 2 -14 -35 -2 -43 6 -4 6 -11 -2 -20 -8 -10 -8
-14 0 -14 6 0 11 -5 11 -11 0 -6 -7 -8 -16 -5 -8 3 -13 2 -9 -3 3 -5 21 -8 40
-7 20 2 38 -1 41 -5 3 -5 -1 -9 -8 -9 -7 0 -19 -9 -26 -20 -7 -11 -17 -20 -24
-20 -6 0 -3 9 7 20 10 11 13 20 7 20 -7 0 -12 -6 -12 -12 0 -10 -3 -9 -9 1 -6
9 -8 4 -8 -17 2 -26 4 -29 20 -20 10 5 21 7 24 5 2 -3 -5 -11 -17 -17 -16 -8
-19 -15 -11 -24 6 -7 8 -16 4 -19 -3 -4 0 -13 7 -22 7 -8 9 -15 5 -15 -5 0 0
-9 11 -21 10 -12 18 -24 17 -28 -2 -3 2 -7 7 -7 23 -3 24 -5 10 -14 -11 -7
-11 -10 -2 -10 8 0 10 -5 6 -12 -6 -10 -5 -10 8 -1 15 13 28 8 28 -9 0 -5 -5
-6 -11 -2 -6 3 -3 -5 6 -20 19 -28 27 -34 19 -13 -3 8 1 14 8 14 7 0 19 2 27
4 7 2 16 -2 18 -9 3 -7 -1 -10 -10 -6 -8 3 -18 1 -21 -5 -8 -12 30 -35 43 -27
5 3 12 -1 15 -10 4 -9 13 -14 21 -10 8 3 15 2 15 -3 0 -18 -15 -20 -39 -5
l-26 15 24 -21 c19 -17 26 -18 39 -8 13 11 15 10 9 -6 -7 -17 -6 -17 10 -5 15
12 16 12 10 -4 -5 -13 -3 -16 5 -11 7 4 23 9 37 10 18 2 21 0 12 -9 -6 -6 -11
-15 -11 -21 0 -5 7 -1 16 10 14 17 15 17 10 1 -3 -11 -2 -16 4 -12 6 3 10 13
10 21 0 17 12 18 29 2 11 -11 12 -10 6 1 -5 9 -3 12 6 9 8 -3 14 -11 15 -19 2
-30 5 -31 26 -13 21 19 21 19 14 0 -5 -16 -4 -17 9 -6 12 10 15 10 15 0 0 -10
3 -10 15 0 8 6 20 8 26 4 8 -5 9 -3 4 6 -5 9 -2 10 13 6 11 -4 26 -1 34 7 7 7
20 12 28 9 8 -2 5 3 -7 13 -13 9 -23 21 -23 27 0 6 7 5 18 -4 9 -9 28 -14 42
-13 14 2 29 4 33 4 5 1 5 6 1 13 -5 8 -2 9 10 5 9 -4 14 -3 11 2 -3 5 3 12 14
16 11 3 22 13 25 21 3 8 11 12 16 9 6 -4 9 -1 8 7 -2 7 3 12 10 10 8 -1 11 2
8 7 -3 5 1 12 10 15 8 3 13 10 9 15 -3 5 5 17 17 25 12 9 19 16 14 16 -5 0 -3
6 3 14 6 7 8 22 4 31 -5 14 -3 16 7 10 8 -5 11 -4 6 3 -3 6 -2 13 4 17 6 4 8
10 5 15 -3 5 -1 12 5 15 10 6 -24 45 -40 45 -4 0 -7 7 -7 15 0 19 5 19 23 0 8
-8 21 -12 30 -8 13 5 12 8 -3 26 -14 16 -15 19 -3 15 11 -4 16 0 16 12 0 10
-4 16 -9 13 -5 -3 -6 4 -3 15 5 15 2 22 -14 27 -11 4 -17 11 -14 17 4 6 10 6
17 -1 6 -6 16 -11 21 -11 6 0 3 5 -7 11 -14 8 -16 14 -6 25 8 10 8 14 1 14 -6
0 -9 7 -6 15 4 8 -1 17 -9 21 -9 3 -13 13 -10 22 4 14 3 14 -5 3 -6 -8 -8 -19
-6 -26 3 -6 -2 -17 -10 -24 -12 -10 -14 -9 -12 11 1 13 8 34 16 48 9 17 10 25
1 28 -6 2 -9 8 -6 13 4 5 -2 6 -11 2 -13 -5 -15 -3 -9 7 6 9 4 11 -5 5 -10 -6
-12 -4 -7 8 4 10 -1 18 -13 22 -18 6 -37 40 -31 59 1 5 -6 3 -15 -5 -16 -12
-17 -12 -11 4 4 11 3 16 -3 12 -6 -3 -10 -1 -10 4 0 6 -9 11 -20 11 -11 0 -19
6 -17 13 1 6 -5 12 -13 12 -8 0 -19 6 -23 13 -5 7 -13 10 -18 6 -6 -3 -17 2
-25 12 -13 17 -13 17 -8 1 5 -12 2 -16 -9 -12 -8 4 -17 -1 -20 -9 -7 -17 8
-30 23 -21 6 3 10 1 10 -4 0 -15 -35 -14 -48 2 -6 7 -7 18 -2 26 12 21 0 42
-20 36 -10 -3 -21 -1 -25 5 -3 5 -11 10 -18 10 -6 0 -2 -6 9 -14 18 -14 17
-15 -9 -12 -16 2 -32 9 -37 16 -6 9 -9 9 -15 0z m20 -19 c3 -5 0 -13 -6 -16
-5 -4 -8 -14 -5 -22 5 -11 1 -13 -17 -8 -17 5 -19 4 -7 -4 8 -6 12 -11 8 -11
-5 0 -11 0 -15 0 -4 0 -8 13 -9 29 -1 28 5 34 38 40 4 0 9 -3 13 -8z m85 -21
c-7 -13 -6 -21 5 -30 8 -7 15 -15 15 -19 0 -14 -36 -6 -52 11 -21 21 -1 26 22
6 12 -11 12 -10 1 4 -7 9 -9 23 -5 30 6 10 3 9 -9 -1 -14 -11 -20 -11 -34 0
-17 13 -17 13 -3 -5 14 -18 13 -19 -2 -13 -13 4 -16 1 -12 -17 2 -13 -3 -29
-11 -36 -18 -15 -20 0 -2 20 6 7 0 5 -15 -6 -32 -22 -42 -41 -22 -41 7 0 11 4
8 9 -6 10 26 6 46 -7 12 -7 13 -6 3 7 -7 8 -10 18 -6 21 3 4 13 -2 21 -14 12
-17 16 -18 30 -7 13 11 15 10 9 -5 -5 -15 -4 -16 13 -7 24 13 33 13 25 0 -4
-6 1 -7 12 -4 15 5 15 4 3 -5 -8 -5 -11 -13 -7 -18 5 -4 11 -2 15 4 5 8 12 8
24 -1 10 -7 15 -16 11 -20 -4 -4 0 -4 10 0 9 3 17 1 17 -4 0 -6 11 -9 25 -6
30 5 31 2 5 -21 -20 -18 -21 -18 -14 1 7 17 6 18 -11 4 -11 -9 -16 -10 -11 -2
5 8 1 12 -12 12 -11 0 -23 7 -26 16 -3 8 -11 12 -17 8 -7 -4 -17 -1 -23 7 -16
21 -85 26 -204 15 -30 -3 -42 0 -39 8 3 6 11 9 18 8 37 -10 46 -9 46 1 0 7 2
17 3 22 6 27 -1 36 -22 29 -21 -6 -22 -6 -8 12 14 17 14 18 -2 6 -9 -8 -23
-11 -30 -7 -7 4 -5 0 4 -8 10 -8 15 -17 11 -21 -4 -4 1 -4 12 0 18 7 18 6 7
-9 -15 -17 -46 -12 -35 7 5 7 2 7 -8 -1 -9 -7 -20 -8 -28 -3 -8 4 -21 6 -30 3
-12 -3 -11 -1 2 7 13 9 22 9 32 0 17 -14 28 1 18 26 -5 13 -3 16 10 11 9 -3
19 -2 22 3 10 16 24 12 46 -14 20 -23 23 -24 45 -9 13 8 21 19 18 25 -9 14 17
39 35 33 9 -2 23 0 31 5 20 13 32 2 20 -20z m50 -10 c0 -5 -5 -10 -11 -10 -5
0 -7 5 -4 10 3 6 8 10 11 10 2 0 4 -4 4 -10z m52 -5 c4 -5 5 -17 2 -27 -2 -9
-1 -19 4 -22 5 -3 8 -17 7 -31 -2 -14 1 -25 6 -25 5 0 9 5 9 10 0 6 5 10 11
10 5 0 7 -5 4 -11 -4 -6 0 -9 10 -7 10 2 20 -3 23 -11 2 -8 0 -11 -5 -8 -5 3
-15 2 -23 -3 -15 -9 -65 13 -110 49 -19 15 -22 23 -13 32 14 14 36 2 29 -17
-3 -8 -1 -14 4 -14 5 0 15 -7 24 -15 13 -13 14 -12 11 12 -2 16 -4 32 -4 37
-1 4 -7 6 -14 3 -9 -3 -14 4 -14 23 0 28 23 37 39 15z m37 -12 c-4 -22 2 -32
15 -27 8 3 19 -3 26 -16 6 -11 15 -18 19 -16 4 3 13 -6 20 -20 14 -32 14 -37
-1 -27 -7 4 -15 8 -18 8 -3 0 -17 9 -32 19 -15 10 -32 15 -38 11 -5 -3 -10 -1
-10 4 0 6 5 11 10 11 6 0 10 5 10 11 0 5 -4 8 -9 4 -13 -8 -22 10 -15 29 6 16
25 23 23 9z m-175 -19 c18 -18 20 -30 6 -39 -5 -3 -16 8 -25 25 -17 32 -6 40
19 14z m-125 -35 c-6 -12 -13 -18 -16 -15 -3 3 -1 12 5 19 7 8 8 18 4 22 -4 5
-1 5 6 1 9 -5 9 -12 1 -27z m171 5 c0 -8 -4 -12 -10 -9 -5 3 -10 10 -10 16 0
5 5 9 10 9 6 0 10 -7 10 -16z m75 7 c3 -5 1 -12 -5 -16 -5 -3 -10 1 -10 9 0
18 6 21 15 7z m-368 -12 c11 5 25 6 33 1 8 -5 17 -7 21 -4 4 2 6 -13 4 -33 -1
-20 -8 -39 -15 -41 -14 -5 -82 -72 -73 -72 3 0 -2 -9 -11 -19 -10 -11 -19 -27
-20 -37 -2 -10 -9 -20 -17 -22 -11 -3 -12 -2 -1 6 11 7 11 10 -2 15 -15 6 -12
37 2 35 21 -2 31 4 26 17 -4 8 1 17 9 21 10 3 15 17 14 36 -1 17 3 33 10 35 8
3 11 -7 8 -29 l-4 -33 17 33 c8 17 20 32 24 32 5 0 6 -6 2 -12 -4 -7 -4 -10 0
-6 4 3 6 10 4 15 -4 11 -57 13 -64 2 -6 -11 -24 -2 -24 12 0 6 4 8 8 5 4 -2
14 -1 21 4 17 10 4 33 -15 26 -8 -3 -14 -2 -14 3 0 15 13 21 26 10 9 -7 19 -7
31 0z m-61 -38 c-4 -5 -13 -8 -22 -4 -11 4 -12 8 -3 20 14 16 36 2 25 -16z
m34 15 c0 -3 -4 -8 -10 -11 -5 -3 -10 -1 -10 4 0 6 5 11 10 11 6 0 10 -2 10
-4z m-15 -76 c0 -13 -6 -25 -14 -28 -10 -3 -11 0 -2 16 13 24 15 43 3 25 -7
-10 -12 -10 -27 0 -10 8 -15 19 -11 26 12 19 51 -12 51 -39z m545 29 c0 -6 -4
-7 -10 -4 -5 3 -7 0 -4 -8 3 -8 -2 -14 -11 -14 -9 0 -14 6 -11 14 8 21 -2 15
-15 -8 -6 -12 -7 -19 -1 -15 5 3 13 -1 16 -10 5 -12 1 -14 -17 -9 -17 5 -19 4
-7 -4 17 -12 1 -15 -18 -3 -10 7 -8 14 7 34 11 14 17 29 13 33 -4 5 -2 6 3 2
6 -3 17 -2 25 3 16 10 30 4 30 -11z m35 -18 c3 -24 0 -31 -14 -31 -28 0 -31
10 -15 42 18 35 23 33 29 -11z m-620 -9 c6 -4 12 -21 13 -37 2 -24 -2 -31 -17
-32 -14 -1 -18 3 -14 13 3 8 1 14 -3 15 -5 0 -19 2 -31 3 -21 2 -21 2 -6 -28
18 -37 29 -49 20 -23 -5 13 -3 17 5 14 7 -2 12 -11 10 -21 -2 -9 2 -16 8 -16
5 0 9 -3 9 -7 -4 -22 2 -33 14 -27 9 6 9 4 1 -7 -6 -8 -10 -24 -8 -37 3 -14 0
-21 -6 -17 -5 3 -10 1 -10 -4 0 -6 5 -11 10 -11 13 0 13 -27 0 -35 -6 -4 -9
-1 -8 7 2 7 -3 12 -10 10 -7 -1 -23 3 -35 10 -12 7 -27 11 -33 10 -14 -3 -39
26 -31 35 4 3 2 12 -5 20 -9 11 -8 18 5 31 10 9 17 11 17 5 0 -6 -3 -13 -7
-16 -5 -2 -2 -2 5 -1 15 4 15 -1 2 -26 -8 -15 -7 -18 4 -14 8 3 21 -4 29 -16
13 -18 15 -19 21 -4 3 9 13 14 20 11 8 -3 17 0 19 7 4 9 -2 11 -20 8 -18 -3
-24 -1 -19 7 4 6 11 9 16 6 14 -9 23 15 11 29 -6 7 -9 15 -6 18 13 13 -32 3
-47 -10 -11 -9 -18 -11 -18 -4 0 7 9 17 20 24 11 7 20 16 20 21 0 4 -5 5 -12
1 -7 -4 -8 -3 -4 4 4 7 3 12 -1 12 -13 0 -10 47 4 61 10 10 17 9 33 -6 14 -13
24 -15 31 -8 8 8 7 13 -2 18 -8 5 -10 4 -5 -3 4 -7 3 -12 -3 -12 -13 0 -22 15
-14 24 8 8 15 7 28 -2z m585 -34 c0 -5 -5 -6 -12 -2 -7 5 -8 3 -3 -6 6 -9 4
-11 -6 -5 -11 6 -12 5 -2 -5 11 -12 15 -11 26 5 8 10 19 15 25 11 11 -6 16 6
13 27 -1 9 23 10 32 1 9 -10 -12 -46 -24 -39 -5 4 -9 1 -9 -4 0 -6 4 -11 9
-11 13 0 7 -83 -7 -88 -7 -2 -10 2 -6 12 3 9 2 16 -2 17 -5 0 -19 2 -31 3 -18
2 -20 0 -12 -15 5 -10 8 -24 7 -31 -2 -6 2 -12 9 -13 22 0 24 -13 4 -20 -12
-3 -21 -11 -21 -18 0 -8 3 -8 12 1 15 15 28 16 28 2 0 -5 -7 -10 -15 -10 -8 0
-15 -4 -15 -10 0 -5 7 -6 17 -3 12 5 14 3 8 -7 -5 -8 -4 -11 2 -7 6 4 13 0 17
-8 6 -17 1 -19 -23 -6 -15 8 -17 6 -15 -12 1 -12 3 -26 3 -31 1 -4 7 -6 15 -3
10 4 14 0 13 -14 -1 -21 -17 -27 -17 -6 0 8 -4 7 -10 -3 -9 -14 -15 -7 -10 15
1 5 -7 15 -16 22 -10 7 -13 13 -7 13 7 0 10 24 8 68 -2 37 -4 67 -5 67 -1 0
-3 8 -5 18 -2 10 -11 30 -21 44 -16 25 -16 27 2 40 11 8 17 21 16 31 -3 13 -1
14 12 3 9 -8 16 -18 16 -23z m-615 -18 c3 -5 -1 -10 -10 -10 -9 0 -13 5 -10
10 3 6 8 10 10 10 2 0 7 -4 10 -10z m723 -45 c0 -29 -24 -53 -39 -38 -6 6 -2
19 11 36 26 33 28 33 28 2z m-730 -37 c19 -19 14 -26 -13 -23 -14 1 -28 -2
-32 -8 -3 -6 -1 -7 4 -4 6 4 14 0 17 -9 9 -24 2 -27 -17 -6 -15 16 -15 20 -1
40 17 25 25 27 42 10z m647 2 c3 -5 -1 -10 -10 -10 -9 0 -13 5 -10 10 3 6 8
10 10 10 2 0 7 -4 10 -10z m90 -50 c-4 -6 -11 -10 -16 -10 -6 0 -8 4 -4 9 3 5
0 13 -6 17 -8 4 -9 3 -5 -4 4 -7 2 -12 -3 -12 -6 0 -11 5 -11 11 0 8 -5 8 -15
-1 -11 -9 -18 -10 -28 -1 -8 6 -17 9 -21 6 -3 -3 -2 0 3 7 8 8 14 8 24 -1 12
-9 16 -8 21 4 5 14 9 14 36 0 17 -9 28 -20 25 -25z m-25 -14 c22 -9 28 -16 20
-21 -7 -4 -16 -2 -21 6 -6 10 -9 10 -9 2 0 -7 9 -17 20 -23 11 -6 20 -16 20
-22 0 -6 -9 -3 -19 6 -19 18 -47 14 -36 -5 4 -5 1 -9 -4 -9 -6 0 -11 7 -11 15
0 8 -4 15 -9 15 -12 0 -9 33 4 42 13 10 7 10 45 -6z m-707 -61 c11 -7 25 -11
32 -9 9 4 12 -1 11 -13 -2 -10 4 -29 13 -43 15 -22 15 -24 -1 -18 -13 5 -15 3
-11 -10 6 -15 5 -15 -10 -3 -9 7 -14 17 -11 22 3 5 7 17 9 27 3 18 -4 22 -48
23 -16 0 -17 3 -5 17 11 15 11 15 -3 5 -9 -7 -19 -9 -24 -5 -4 4 0 -6 10 -21
10 -15 15 -30 12 -33 -3 -3 -13 6 -23 21 -17 26 -17 28 1 41 23 17 25 17 48
-1z m647 -31 c0 -8 -5 -12 -10 -9 -6 4 -8 11 -5 16 9 14 15 11 15 -7z m58 1
c23 -17 24 -43 3 -69 -7 -8 -10 -20 -6 -26 3 -5 -3 -24 -15 -40 -16 -23 -25
-28 -38 -21 -9 4 -24 6 -32 3 -13 -4 -13 -3 -1 11 10 12 18 14 32 7 14 -8 20
-6 29 10 6 11 8 25 5 30 -3 5 0 12 6 15 5 4 8 14 5 22 -4 10 -2 13 7 10 8 -3
14 1 14 8 0 8 -7 11 -16 7 -14 -5 -14 -4 -1 14 14 18 14 18 -3 5 -20 -16 -45
-2 -33 18 9 15 17 14 44 -4z m-678 -21 c0 -4 -7 -3 -16 0 -13 5 -14 4 -6 -7 7
-8 9 -17 5 -21 -4 -3 2 -13 13 -20 14 -11 22 -11 32 -3 10 8 16 7 23 -4 12
-19 11 -31 -6 -53 -8 -10 -12 -23 -9 -27 8 -14 -46 -31 -61 -19 -6 5 -16 6
-20 2 -5 -4 -5 -2 -2 4 8 14 -17 37 -28 26 -5 -4 -5 -2 -2 4 4 7 0 18 -9 25
-14 11 -13 14 8 25 31 18 43 17 28 -1 -7 -8 -17 -12 -22 -9 -5 3 -4 -3 4 -15
13 -22 28 -28 28 -12 0 5 -5 11 -11 13 -7 2 -5 9 5 17 14 12 15 10 12 -18 -2
-17 2 -38 8 -46 9 -12 11 -4 10 37 0 33 -5 53 -12 54 -7 1 -17 2 -22 3 -7 1
-7 7 0 21 6 10 10 23 9 27 -3 19 2 23 21 13 11 -6 20 -13 20 -16z m-73 -6 c15
-18 12 -48 -4 -48 -20 0 -28 4 -28 15 0 6 -4 15 -8 22 -4 6 -1 14 5 16 21 8
25 8 35 -5z m653 2 c0 -5 -4 -10 -10 -10 -5 0 -10 5 -10 10 0 6 5 10 10 10 6
0 10 -4 10 -10z m10 -41 c0 -6 -6 -6 -19 0 -14 8 -20 7 -24 -3 -4 -10 0 -12
14 -9 11 3 19 0 19 -6 0 -7 -5 -9 -10 -6 -6 3 -13 0 -16 -9 -3 -8 -12 -12 -19
-10 -7 3 -16 1 -20 -5 -3 -7 0 -8 9 -5 9 3 16 2 16 -4 0 -13 -29 -24 -42 -15
-7 3 -8 1 -4 -5 4 -7 2 -12 -3 -12 -6 0 -11 3 -11 8 1 13 38 52 50 52 6 0 9 3
7 8 -3 4 -1 17 4 30 7 19 12 21 29 12 11 -6 20 -15 20 -21z m70 27 c0 -11 -19
-15 -25 -6 -3 5 1 10 9 10 9 0 16 -2 16 -4z m-30 -29 c0 5 7 10 15 10 9 0 14
-5 12 -11 -3 -6 -10 -10 -16 -8 -6 1 -11 -2 -11 -8 0 -5 5 -10 10 -10 6 0 10
-4 10 -10 0 -5 -15 -8 -33 -6 -18 3 -40 0 -48 -5 -10 -8 -7 -8 11 -3 22 6 24
5 11 -10 -8 -9 -21 -14 -30 -11 -13 4 -12 2 2 -9 17 -13 24 -32 8 -22 -14 9
-21 -20 -8 -33 8 -8 8 -11 0 -11 -18 0 -33 25 -23 40 5 8 7 17 4 21 -7 11 18
59 27 53 5 -3 14 6 21 20 9 20 14 23 25 15 7 -6 13 -7 13 -2z m-497 -98 c2 3
79 -31 87 -39 7 -7 130 -7 130 0 0 3 12 7 27 8 15 1 36 11 48 22 21 20 22 20
39 1 17 -19 17 -20 -3 -18 -12 1 -21 6 -21 12 0 5 -5 3 -10 -5 -5 -8 -7 -22
-4 -31 3 -11 -1 -16 -12 -15 -9 0 -19 -5 -21 -11 -7 -19 28 -15 43 5 13 16 15
16 29 -2 8 -11 12 -22 9 -25 -6 -6 -144 -9 -144 -3 0 11 40 43 48 38 6 -3 12
0 15 7 4 10 -2 13 -19 9 -13 -2 -24 -8 -24 -13 0 -11 -23 -7 -32 6 -5 6 -8 5
-8 -3 0 -10 -5 -10 -20 -2 -16 9 -18 8 -14 -5 3 -8 10 -12 15 -9 5 3 9 0 9 -5
0 -6 -2 -11 -4 -11 -2 0 -12 -3 -22 -7 -11 -4 -15 -3 -11 4 8 13 -23 48 -32
36 -3 -4 -13 -10 -21 -11 -44 -11 -51 -10 -47 1 2 7 9 13 15 13 7 1 18 2 25 3
7 1 4 6 -7 12 -14 9 -20 8 -26 -1 -6 -9 -10 -6 -15 10 l-7 22 -15 -21 c-13
-20 -13 -23 9 -41 13 -11 18 -19 11 -20 -6 0 -15 5 -18 10 -5 8 -11 7 -20 0
-23 -19 -15 31 9 60 11 14 14 19 6 13 -8 -7 -17 -13 -22 -13 -4 0 -6 6 -4 13
1 6 1 9 -1 4 -3 -4 -9 -4 -15 -1 -7 4 -6 9 2 14 9 5 9 9 1 14 -6 4 -11 2 -11
-5 0 -8 -4 -8 -15 1 -11 9 -12 16 -5 26 9 10 18 6 42 -19 16 -18 31 -30 31
-28z m-53 -4 l23 -25 -24 -27 c-13 -16 -25 -30 -26 -31 -1 -2 -10 1 -20 8 -15
10 -16 11 -1 6 21 -6 34 12 19 27 -13 13 -41 18 -41 8 0 -4 -7 -8 -15 -8 -11
0 -12 3 -3 14 6 8 17 12 24 9 7 -3 15 2 18 10 3 9 11 12 17 8 7 -4 8 -9 1 -13
-6 -4 -4 -12 6 -21 14 -13 15 -12 9 3 -4 10 -2 17 4 17 6 0 1 9 -12 20 -13 10
-19 19 -13 20 6 0 21 -11 34 -25z m420 10 c5 3 10 2 10 -4 0 -5 -5 -13 -10
-16 -12 -8 -40 12 -40 27 0 6 6 5 15 -2 8 -6 19 -9 25 -5z m31 -13 c-7 -12 -5
-22 4 -32 15 -17 9 -64 -6 -54 -5 3 -5 13 1 24 6 10 6 21 2 24 -5 3 -9 0 -10
-7 -1 -7 -3 -23 -6 -37 -2 -14 -4 -29 -5 -34 0 -5 -7 -3 -15 3 -11 9 -15 9
-19 -1 -2 -7 -8 -9 -13 -5 -12 11 17 28 36 21 8 -3 5 4 -7 16 -13 11 -23 25
-23 30 0 6 -9 10 -20 10 -11 0 -20 4 -20 9 0 10 19 9 38 -2 7 -5 12 -4 12 2 0
6 7 11 15 11 8 0 17 11 21 25 3 14 10 22 15 19 6 -3 5 -12 0 -22z m82 -25
c-15 -12 -36 -31 -45 -42 -10 -11 -17 -15 -18 -9 0 6 7 17 15 24 11 9 12 16 5
25 -11 14 9 27 33 21 6 -1 9 -1 5 1 -19 11 -6 23 13 13 20 -11 19 -12 -8 -33z
m-458 -25 c-8 -8 -25 10 -19 20 4 6 9 5 15 -3 4 -7 6 -15 4 -17z m-65 -17 c-9
-10 -9 -15 -1 -15 6 0 11 -4 11 -10 0 -16 -17 -12 -24 6 -7 18 0 34 16 34 7 0
6 -6 -2 -15z m165 -5 c2 -4 -3 -14 -12 -21 -14 -12 -16 -12 -11 2 4 9 1 16 -8
16 -7 0 -11 -4 -8 -9 3 -5 1 -15 -6 -23 -8 -9 -8 -15 0 -20 6 -4 10 -3 9 2 -4
22 2 25 15 7 10 -13 14 -15 13 -4 -2 18 16 26 22 9 2 -7 -1 -9 -8 -5 -7 4 -10
2 -9 -5 2 -8 -12 -13 -42 -14 -50 -2 -86 10 -94 32 -9 22 4 36 20 22 11 -9 17
-9 29 1 8 7 15 9 15 6 0 -4 7 -3 15 1 20 12 53 14 60 3z m76 -4 c-26 -34 9
-68 40 -40 17 15 20 15 44 0 33 -21 32 -24 -7 -22 -39 3 -58 -3 -58 -16 0 -6
6 -5 15 2 9 7 15 8 15 2 0 -15 -30 -23 -48 -13 -12 7 -22 5 -34 -6 -10 -9 -18
-11 -18 -6 0 18 27 34 46 27 17 -5 17 -4 -1 8 -18 11 -22 26 -16 64 0 6 8 11
16 11 9 0 11 -4 6 -11z m-41 -46 c-11 -7 -11 -10 -2 -10 7 0 10 -5 6 -11 -10
-18 -24 4 -17 29 4 17 9 20 17 12 8 -8 7 -13 -4 -20z m70 10 c0 -5 -4 -10 -10
-10 -5 0 -10 5 -10 10 0 6 5 10 10 10 6 0 10 -4 10 -10z m60 -40 c0 -5 -4 -10
-10 -10 -5 0 -10 5 -10 10 0 6 5 10 10 10 6 0 10 -4 10 -10z"/>
<path d="M641 1081 c-8 -5 -9 -11 -3 -15 5 -3 12 1 16 9 6 17 6 18 -13 6z"/>
<path d="M915 1001 c-6 -10 32 -41 50 -41 5 1 -3 8 -18 16 -15 8 -25 19 -22
24 4 6 4 10 1 10 -3 0 -7 -4 -11 -9z"/>
<path d="M470 960 c0 -5 5 -10 10 -10 6 0 10 5 10 10 0 6 -4 10 -10 10 -5 0
-10 -4 -10 -10z"/>
<path d="M500 961 c0 -5 7 -11 14 -14 10 -4 13 -1 9 9 -6 15 -23 19 -23 5z"/>
<path d="M350 680 c0 -5 5 -10 11 -10 5 0 7 5 4 10 -3 6 -8 10 -11 10 -2 0 -4
-4 -4 -10z"/>
<path d="M995 840 c-3 -5 -1 -10 4 -10 6 0 11 5 11 10 0 6 -2 10 -4 10 -3 0
-8 -4 -11 -10z"/>
<path d="M942 816 c10 -7 15 -16 12 -19 -3 -3 6 -4 20 -3 15 2 29 -1 32 -5 3
-5 11 -9 17 -9 7 0 6 4 -3 10 -13 9 -13 11 0 19 10 7 3 9 -23 7 -21 -2 -40 1
-43 5 -3 5 -11 9 -17 9 -7 0 -4 -6 5 -14z"/>
<path d="M1039 698 c-5 -18 -6 -38 -1 -34 7 8 12 36 6 36 -2 0 -4 -1 -5 -2z"/>
<path d="M415 520 c-4 -6 -11 -8 -16 -5 -5 4 -9 1 -9 -5 0 -7 7 -9 16 -6 10 4
14 2 11 -6 -2 -7 -9 -12 -14 -11 -6 1 -10 -9 -10 -22 0 -14 4 -25 9 -25 5 0 7
4 4 9 -3 5 4 20 15 35 11 14 15 26 9 26 -6 0 -8 5 -5 10 3 6 4 10 1 10 -3 0
-8 -5 -11 -10z"/>
<path d="M299 562 c9 -7 10 -11 2 -15 -7 -4 -8 -5 0 -3 15 2 13 20 -3 24 -10
3 -10 2 1 -6z"/>
<path d="M990 520 c0 -5 5 -10 11 -10 5 0 7 5 4 10 -3 6 -8 10 -11 10 -2 0 -4
-4 -4 -10z"/>
<path d="M755 360 c-3 -5 -1 -10 4 -10 6 0 11 5 11 10 0 6 -2 10 -4 10 -3 0
-8 -4 -11 -10z"/>
<path d="M835 360 c-3 -5 -1 -10 4 -10 6 0 11 5 11 10 0 6 -2 10 -4 10 -3 0
-8 -4 -11 -10z"/>
<path d="M884 392 c3 -5 1 -12 -6 -14 -8 -3 -9 -6 -1 -11 6 -4 13 0 17 8 3 8
0 17 -6 21 -6 4 -8 3 -4 -4z"/>
<path d="M553 336 c-3 -5 -1 -6 5 -2 7 4 12 1 12 -8 0 -20 -14 -20 -30 -1 -7
8 -17 15 -23 15 -5 0 2 -9 16 -20 31 -25 31 -25 50 3 14 21 13 23 -5 23 -11 0
-22 -5 -25 -10z"/>
<path d="M525 1080 c-3 -5 -13 -7 -23 -4 -14 5 -14 4 -3 -4 15 -11 41 -5 41 9
0 12 -7 11 -15 -1z"/>
<path d="M394 1004 c-18 -14 -18 -15 4 -4 12 6 22 13 22 15 0 8 -5 6 -26 -11z"/>
<path d="M320 920 c-13 -8 -12 -10 3 -10 9 0 17 5 17 10 0 12 -1 12 -20 0z"/>
<path d="M617 257 c-3 -7 3 -13 14 -13 22 0 25 12 5 19 -8 3 -16 0 -19 -6z"/>
</g>
</svg>
